<?xml version="1.0" encoding="utf-8"?>
<svg version="1.1" id="Layer_1" xmlns="http://www.w3.org/2000/svg" xmlns:xlink="http://www.w3.org/1999/xlink" x="0px" y="0px"
	 viewBox="0 0 1531 250" style="enable-background:new 0 0 1531 250;" xml:space="preserve">
<style type="text/css">
	.st0{fill:#ffffff;}
</style>
<g>
	<g>
		<g>
			<g>
				<path class="st0" d="M255.59,248.14l17.5-46.1L223.6,73.66h22.93l28.84,80.12c0.81,2.25,1.57,4.46,2.29,6.63
					c0.73,2.18,1.45,4.31,2.18,6.4c1.29,3.86,2.41,7.36,3.38,10.5h0.48c1.12-3.46,2.35-7.2,3.68-11.22
					c1.33-4.02,2.71-8.12,4.16-12.31l28.35-80.12h22.93l-66,174.6L255.59,248.14z"/>
				<path class="st0" d="M363.33,201.2V73.66h22.45v20.39h0.36c3.7-7.24,8.99-12.91,15.87-17.02c6.87-4.1,14.94-6.15,24.19-6.15
					c9.33,0,17.39,1.93,24.19,5.79c6.8,3.86,12.06,9.61,15.75,17.25c3.7,7.64,5.56,17.06,5.56,28.24v79.04h-22.32V124.7
					c0-10.94-2.56-19.37-7.66-25.28c-5.12-5.92-12.33-8.87-21.67-8.87c-7,0-13.09,1.63-18.28,4.88c-5.18,3.26-9.15,7.71-11.88,13.34
					c-2.73,5.63-4.1,11.9-4.1,18.82v73.61H363.33z"/>
				<path class="st0" d="M548.62,203.98c-10.47,0-19.88-2.66-28.24-7.97s-14.93-12.95-19.66-22.93c-4.75-9.97-7.12-21.8-7.12-35.47
					c0-13.36,2.31-25.08,6.94-35.18c4.62-10.09,11.12-17.87,19.49-23.35c8.37-5.47,17.94-8.2,28.71-8.2c6.44,0,12.45,0.96,18.05,2.9
					c5.58,1.93,10.53,4.69,14.84,8.27c4.3,3.58,7.91,7.82,10.8,12.73h0.47V22.01h22.32V201.2h-22.32v-20.99h-0.47
					c-3.06,5.15-6.85,9.49-11.35,13.03c-4.5,3.54-9.53,6.21-15.08,8.02C560.44,203.07,554.65,203.98,548.62,203.98z M554.9,184.43
					c7.56,0,14.23-1.93,20.02-5.79c5.79-3.86,10.28-9.31,13.45-16.35c3.18-7.04,4.77-15.26,4.77-24.67c0-9.25-1.57-17.41-4.71-24.49
					c-3.13-7.08-7.59-12.59-13.39-16.53c-5.79-3.94-12.55-5.92-20.27-5.92c-7.48,0-14.16,1.91-20.04,5.73
					c-5.87,3.82-10.43,9.25-13.7,16.3c-3.26,7.04-4.88,15.3-4.88,24.8c0,9.49,1.68,17.77,5.01,24.85
					c3.34,7.08,7.93,12.53,13.76,16.35C540.75,182.52,547.41,184.43,554.9,184.43z"/>
				<path class="st0" d="M692.81,204.1c-16.08,0-28.7-3.68-37.82-11.04c-9.14-7.36-14.18-17.79-15.15-31.31h22.32
					c0.48,7.48,3.37,13.39,8.63,17.74c5.27,4.34,12.65,6.52,22.15,6.52c8.76,0,15.55-1.71,20.34-5.13
					c4.79-3.42,7.17-7.98,7.17-13.69c0-4.51-0.96-8.04-2.9-10.62c-1.93-2.57-5.11-4.66-9.53-6.27s-10.85-3.22-19.3-4.83
					c-10.78-1.93-19.3-4.33-25.58-7.18c-6.28-2.86-10.88-6.58-13.82-11.16c-2.93-4.59-4.4-10.42-4.4-17.5
					c0-7.56,1.89-14.26,5.67-20.09c3.79-5.84,9.3-10.4,16.53-13.7c7.25-3.3,15.81-4.95,25.71-4.95c9.98,0,18.64,1.49,26,4.46
					c7.36,2.98,13.05,7.32,17.08,13.03c4.01,5.72,6.15,12.51,6.39,20.4h-21.84c-0.56-6.2-3.19-11.03-7.91-14.48
					c-4.7-3.46-11.24-5.19-19.6-5.19c-5.47,0-10.14,0.75-14,2.23c-3.87,1.49-6.8,3.6-8.81,6.33c-2.01,2.74-3.02,5.92-3.02,9.53
					c0,3.86,0.93,6.94,2.78,9.23c1.84,2.29,4.9,4.19,9.16,5.67c4.26,1.49,10.38,2.96,18.35,4.41c11.26,2.01,20.17,4.46,26.72,7.36
					c6.56,2.9,11.39,6.72,14.48,11.47c3.1,4.74,4.65,10.82,4.65,18.22c0,8.05-1.91,15.11-5.73,21.18
					c-3.83,6.07-9.53,10.82-17.14,14.24C712.78,202.39,703.58,204.1,692.81,204.1z"/>
				<path class="st0" d="M816.27,202.65c-8.61,0-15.52-1.47-20.76-4.41c-5.23-2.93-8.96-6.95-11.22-12.06
					c-2.25-5.11-3.37-11.21-3.37-18.28V92.85h-21.85V73.78h21.85V40.35h22.32v33.42h28.95v19.07h-28.95v73.97
					c0,5.15,1.47,9.15,4.4,12c2.93,2.86,7.74,4.29,14.42,4.29c2.9,0,6.19-0.29,9.89-0.85v18.22
					C826.65,201.92,821.42,202.65,816.27,202.65z"/>
				<path class="st0" d="M859.42,201.2V73.66h22.45v23.41h0.48c3.62-7.8,8.56-13.75,14.84-17.86s13.83-6.15,22.68-6.15
					c2.9,0,4.91,0.08,6.03,0.24v21.36c-0.88-0.16-1.85-0.3-2.9-0.42c-1.04-0.12-2.09-0.18-3.13-0.18c-7.64,0-14.34,1.63-20.09,4.88
					c-5.76,3.26-10.18,7.82-13.28,13.7c-3.11,5.87-4.65,12.75-4.65,20.63v67.94H859.42z"/>
				<path class="st0" d="M998.25,203.98c-12.79,0-23.78-2.84-32.95-8.51c-9.16-5.67-16.17-13.55-20.99-23.65
					c-4.82-10.09-7.23-21.62-7.23-34.57c0-13.44,2.55-25.16,7.66-35.18c5.11-10.02,12.24-17.72,21.42-23.11
					c9.17-5.39,19.75-8.09,31.73-8.09c11.67,0,21.8,2.68,30.42,8.02c8.6,5.35,15.18,12.75,19.73,22.21
					c4.55,9.45,6.82,20.17,6.82,32.16c0,1.53-0.02,3.19-0.06,5.01c-0.05,1.81-0.19,3.64-0.42,5.49h-95.7
					c0.57,8.61,2.52,16.03,5.85,22.26c3.34,6.24,7.91,10.92,13.7,14.06c5.79,3.14,12.67,4.7,20.63,4.7c8.53,0,15.69-1.6,21.48-4.82
					c5.79-3.22,9.77-7.76,11.95-13.64h21.73c-1.62,7.72-5.01,14.44-10.2,20.15c-5.18,5.71-11.7,10.06-19.54,13.03
					C1016.41,202.49,1007.73,203.98,998.25,203.98z M1032.88,126.15c-0.32-7.48-1.91-14.1-4.77-19.84
					c-2.86-5.76-6.9-10.18-12.12-13.28c-5.23-3.1-11.39-4.65-18.47-4.65c-6.84,0-12.99,1.35-18.46,4.05
					c-5.47,2.7-9.96,6.87-13.45,12.55c-3.51,5.67-5.78,12.73-6.82,21.17H1032.88z"/>
				<path class="st0" d="M1118.26,203.61c-8.45,0-15.87-1.61-22.27-4.82c-6.39-3.22-11.27-7.73-14.65-13.52
					c-3.38-5.79-5.07-12.47-5.07-20.03c0-7.72,1.81-14.46,5.43-20.21c3.62-5.75,8.81-10.16,15.56-13.21
					c6.76-3.06,14.64-4.59,23.65-4.59h24.74c4.84,0,8.33-1.09,10.5-3.26c2.18-2.18,3.26-5.47,3.26-9.89c0-4.99-1.19-9.31-3.55-12.97
					c-2.37-3.66-5.74-6.46-10.08-8.39c-4.35-1.93-9.53-2.9-15.56-2.9c-5.63,0-10.54,0.83-14.73,2.47c-4.18,1.65-7.5,4.06-9.96,7.24
					c-2.45,3.18-3.88,6.86-4.28,11.04h-21.6c0.65-8.04,3.09-15.04,7.36-21c4.26-5.95,10.14-10.55,17.63-13.82
					c7.47-3.26,16.16-4.88,26.05-4.88c10.38,0,19.35,1.75,26.91,5.25c7.57,3.5,13.37,8.5,17.44,15.02
					c4.06,6.51,6.09,14.16,6.09,22.93v87.12h-21.71v-20.63h-0.36c-3.62,7.24-8.94,12.89-15.94,16.95
					C1136.11,201.58,1127.83,203.61,1118.26,203.61z M1122.6,185.63c7.88,0,14.58-1.89,20.09-5.67c5.52-3.78,9.68-8.79,12.49-15.02
					c2.82-6.23,4.23-13.01,4.23-20.34v-3.01c-2.9,1.53-7.64,2.29-14.24,2.29h-23.77c-7.23,0-12.99,1.79-17.25,5.37
					s-6.4,8.58-6.4,15.02c0,4.34,0.97,8.1,2.9,11.28c1.94,3.18,4.77,5.66,8.51,7.42C1112.89,184.75,1117.37,185.63,1122.6,185.63z"/>
				<path class="st0" d="M1212.26,201.2V73.66h22.45v18.22h0.24c2.01-4.34,4.81-8.08,8.39-11.22s7.81-5.55,12.67-7.24
					c4.87-1.69,10.16-2.54,15.87-2.54c9.09,0,16.73,1.97,22.92,5.91c6.2,3.95,10.79,9.58,13.76,16.9h0.25
					c3.94-7.56,9.19-13.28,15.74-17.13c6.56-3.87,14.34-5.79,23.36-5.79c8.85,0,16.51,1.81,22.98,5.43
					c6.48,3.62,11.46,9.01,14.97,16.17s5.25,15.85,5.25,26.07v82.78h-22.32v-80.24c0-9.58-2.32-17.04-7-22.39
					c-4.66-5.35-11.3-8.02-19.91-8.02c-6.03,0-11.21,1.4-15.56,4.22c-4.34,2.82-7.66,6.82-9.96,12.01
					c-2.29,5.19-3.43,11.32-3.43,18.4v76.02h-22.32v-80.24c0-9.66-2.27-17.13-6.82-22.45c-4.55-5.31-11.04-7.96-19.49-7.96
					c-5.95,0-11.16,1.45-15.62,4.34c-4.46,2.9-7.91,6.98-10.32,12.24c-2.41,5.27-3.62,11.29-3.62,18.04v76.02H1212.26z"/>
			</g>
			<g>
				<path class="st0" d="M106.54,202.43c-21.79,0-39.52-17.41-39.52-38.81V59.03c0-9.54-8.08-17.3-18.01-17.3
					c-9.93,0-18.01,7.76-18.01,17.3v141H9.5v-141c0-21.4,17.73-38.81,39.52-38.81c21.79,0,39.52,17.41,39.52,38.81v104.6
					c0,9.54,8.08,17.3,18.01,17.3s18.01-7.76,18.01-17.3V59.02c0-21.4,17.73-38.8,39.52-38.8c21.79,0,39.52,17.41,39.52,38.81v141
					h-21.51v-141c0-9.54-8.08-17.3-18.01-17.3c-9.93,0-18.01,7.76-18.01,17.3v104.6C146.06,185.03,128.33,202.43,106.54,202.43z"/>
			</g>
		</g>
	</g>
	<g>
		<path class="st0" d="M1463.25,122.82c-9.31,0-17.86-2.27-25.67-6.81c-7.8-4.54-13.96-10.71-18.48-18.51
			c-4.52-7.8-6.78-16.38-6.78-25.74c0-9.31,2.26-17.87,6.78-25.67c4.52-7.8,10.68-13.96,18.48-18.48c7.8-4.52,16.36-6.78,25.67-6.78
			s17.86,2.26,25.67,6.78c7.8,4.52,13.96,10.68,18.48,18.48s6.78,16.36,6.78,25.67c0,9.35-2.26,17.93-6.78,25.74
			s-10.68,13.98-18.48,18.51C1481.12,120.55,1472.56,122.82,1463.25,122.82z M1463.25,113.92c7.67,0,14.72-1.87,21.15-5.61
			c6.43-3.74,11.51-8.84,15.23-15.3c3.72-6.46,5.58-13.54,5.58-21.25c0-7.71-1.86-14.77-5.58-21.18
			c-3.72-6.41-8.8-11.49-15.23-15.23c-6.43-3.74-13.48-5.61-21.15-5.61s-14.72,1.87-21.15,5.61c-6.43,3.74-11.51,8.82-15.23,15.23
			c-3.72,6.41-5.58,13.47-5.58,21.18c0,7.71,1.86,14.8,5.58,21.25c3.72,6.46,8.79,11.56,15.23,15.3
			C1448.54,112.05,1455.59,113.92,1463.25,113.92z M1445.73,97.15V46.84h22.38c5.16,0,9.18,1.39,12.08,4.18
			c2.9,2.78,4.35,6.59,4.35,11.43c0,3.83-0.95,7.02-2.84,9.55s-4.62,4.19-8.18,4.96l11.22,20.19h-12.46l-10.06-19.1h-5.41v19.1
			H1445.73z M1465.72,69.77c2.28,0,4.18-0.55,5.68-1.64c1.51-1.1,2.26-2.92,2.26-5.48c0-2.6-0.73-4.47-2.19-5.61
			c-1.46-1.14-3.38-1.71-5.75-1.71h-8.9v14.44H1465.72z"/>
	</g>
</g>
</svg>
